<svg width="16" height="16" viewBox="0 0 16 16" fill="none" xmlns="http://www.w3.org/2000/svg">
<g clip-path="url(#clip0_1069_42402)">
<path d="M6 10.666C6.56692 11.0862 7.25638 11.3327 8 11.3327C8.74362 11.3327 9.43308 11.0862 10 10.666" stroke="#828DA9" stroke-width="1.5" stroke-linecap="round"/>
<path d="M14.4239 8.63923L14.238 9.9308C13.9131 12.1891 13.7506 13.3182 12.9672 13.9928C12.1839 14.6673 11.035 14.6673 8.7373 14.6673H7.26254C4.96483 14.6673 3.81598 14.6673 3.0326 13.9928C2.24923 13.3182 2.08675 12.1891 1.76181 9.9308L1.57597 8.63923C1.323 6.88119 1.19652 6.00218 1.55683 5.25061C1.91714 4.49905 2.68404 4.04221 4.21786 3.12852L5.14108 2.57856C6.53395 1.74884 7.23038 1.33398 7.99992 1.33398C8.76946 1.33398 9.46589 1.74884 10.8588 2.57856L11.782 3.12852C13.3158 4.04221 14.0827 4.49905 14.443 5.25061" stroke="#828DA9" stroke-width="1.5" stroke-linecap="round"/>
</g>
<defs>
<clipPath id="clip0_1069_42402">
<rect width="16" height="16" fill="white"/>
</clipPath>
</defs>
</svg>
