<svg width="32" height="24" viewBox="0 0 32 24" fill="none" xmlns="http://www.w3.org/2000/svg">
<g filter="url(#filter0_i_648_98952)">
<rect width="32" height="24" rx="12" fill="white"/>
<rect x="0.1" y="0.1" width="31.8" height="23.8" rx="11.9" stroke="#E0E0E0" stroke-width="0.2"/>
<path d="M12.6667 12.0013C12.6667 12.7377 12.0697 13.3346 11.3333 13.3346C10.597 13.3346 10 12.7377 10 12.0013C10 11.2649 10.597 10.668 11.3333 10.668C12.0697 10.668 12.6667 11.2649 12.6667 12.0013Z" fill="#828DA9"/>
<path d="M17.3333 12.0013C17.3333 12.7377 16.7364 13.3346 16 13.3346C15.2636 13.3346 14.6667 12.7377 14.6667 12.0013C14.6667 11.2649 15.2636 10.668 16 10.668C16.7364 10.668 17.3333 11.2649 17.3333 12.0013Z" fill="#828DA9"/>
<path d="M22 12.0013C22 12.7377 21.403 13.3346 20.6667 13.3346C19.9303 13.3346 19.3333 12.7377 19.3333 12.0013C19.3333 11.2649 19.9303 10.668 20.6667 10.668C21.403 10.668 22 11.2649 22 12.0013Z" fill="#828DA9"/>
</g>
<defs>
<filter id="filter0_i_648_98952" x="0" y="0" width="33" height="26" filterUnits="userSpaceOnUse" color-interpolation-filters="sRGB">
<feFlood flood-opacity="0" result="BackgroundImageFix"/>
<feBlend mode="normal" in="SourceGraphic" in2="BackgroundImageFix" result="shape"/>
<feColorMatrix in="SourceAlpha" type="matrix" values="0 0 0 0 0 0 0 0 0 0 0 0 0 0 0 0 0 0 127 0" result="hardAlpha"/>
<feOffset dx="1" dy="2"/>
<feGaussianBlur stdDeviation="2"/>
<feComposite in2="hardAlpha" operator="arithmetic" k2="-1" k3="1"/>
<feColorMatrix type="matrix" values="0 0 0 0 0 0 0 0 0 0 0 0 0 0 0 0 0 0 0.15 0"/>
<feBlend mode="normal" in2="shape" result="effect1_innerShadow_648_98952"/>
</filter>
</defs>
</svg>
