<svg width="64" height="64" viewBox="0 0 64 64" fill="none" xmlns="http://www.w3.org/2000/svg">
<rect x="64" y="64" width="64" height="64" rx="32" transform="rotate(180 64 64)" fill="#EAEEF2"/>
<rect x="63.5" y="63.5" width="63" height="63" rx="31.5" transform="rotate(180 63.5 63.5)" stroke="#9BA4BA" stroke-opacity="0.2"/>
<g clip-path="url(#clip0_526_63116)">
<path d="M36 39C36 38.258 36.733 37.15 37.475 36.22C38.429 35.02 39.569 33.973 40.876 33.174C41.856 32.575 43.044 32 44 32M44 32C43.044 32 41.855 31.425 40.876 30.826C39.569 30.026 38.429 28.979 37.475 27.781C36.733 26.85 36 25.74 36 25M44 32H20" stroke="#828DA9" stroke-width="1.33333"/>
</g>
<defs>
<clipPath id="clip0_526_63116">
<rect width="24" height="24" fill="white" transform="matrix(-1 0 0 -1 44 44)"/>
</clipPath>
</defs>
</svg>
